<mxfile host="Electron" modified="2025-03-02T11:55:16.821Z" agent="Mozilla/5.0 (Windows NT 10.0; Win64; x64) AppleWebKit/537.36 (KHTML, like Gecko) draw.io/23.0.2 Chrome/120.0.6099.109 Electron/28.1.0 Safari/537.36" etag="miaFEteDWhCNGhnM9tKm" version="23.0.2" type="device">
  <diagram name="wiring" id="YbySaJzgVfRNbJHfyk1f">
    <mxGraphModel dx="945" dy="650" grid="1" gridSize="10" guides="1" tooltips="1" connect="1" arrows="1" fold="1" page="1" pageScale="1" pageWidth="3300" pageHeight="2339" math="0" shadow="0">
      <root>
        <mxCell id="0" />
        <mxCell id="1" parent="0" />
        <mxCell id="l8_rdXsubYtjeVYRqZv_-16" style="rounded=0;orthogonalLoop=1;jettySize=auto;html=1;exitX=1;exitY=0.5;exitDx=0;exitDy=0;entryX=0;entryY=0.5;entryDx=0;entryDy=0;" edge="1" parent="1" source="l8_rdXsubYtjeVYRqZv_-2" target="l8_rdXsubYtjeVYRqZv_-4">
          <mxGeometry relative="1" as="geometry" />
        </mxCell>
        <mxCell id="l8_rdXsubYtjeVYRqZv_-2" value="Motor 3" style="rounded=0;whiteSpace=wrap;html=1;" vertex="1" parent="1">
          <mxGeometry x="310" y="340" width="90" height="30" as="geometry" />
        </mxCell>
        <mxCell id="l8_rdXsubYtjeVYRqZv_-3" value="" style="rounded=0;whiteSpace=wrap;html=1;" vertex="1" parent="1">
          <mxGeometry x="460" y="330" width="150" height="170" as="geometry" />
        </mxCell>
        <mxCell id="l8_rdXsubYtjeVYRqZv_-4" value="Output 1" style="text;html=1;strokeColor=none;fillColor=none;align=left;verticalAlign=middle;whiteSpace=wrap;rounded=0;" vertex="1" parent="1">
          <mxGeometry x="460" y="345" width="70" height="20" as="geometry" />
        </mxCell>
        <mxCell id="l8_rdXsubYtjeVYRqZv_-8" style="rounded=0;orthogonalLoop=1;jettySize=auto;html=1;exitX=1;exitY=0.5;exitDx=0;exitDy=0;entryX=0;entryY=0.5;entryDx=0;entryDy=0;" edge="1" parent="1" source="l8_rdXsubYtjeVYRqZv_-7" target="l8_rdXsubYtjeVYRqZv_-9">
          <mxGeometry relative="1" as="geometry">
            <mxPoint x="560" y="460" as="targetPoint" />
          </mxGeometry>
        </mxCell>
        <mxCell id="l8_rdXsubYtjeVYRqZv_-7" value="Motor 2" style="rounded=0;whiteSpace=wrap;html=1;" vertex="1" parent="1">
          <mxGeometry x="310" y="380" width="90" height="30" as="geometry" />
        </mxCell>
        <mxCell id="l8_rdXsubYtjeVYRqZv_-9" value="Output 2" style="text;html=1;strokeColor=none;fillColor=none;align=left;verticalAlign=middle;whiteSpace=wrap;rounded=0;" vertex="1" parent="1">
          <mxGeometry x="460" y="385" width="70" height="20" as="geometry" />
        </mxCell>
        <mxCell id="l8_rdXsubYtjeVYRqZv_-12" style="rounded=0;orthogonalLoop=1;jettySize=auto;html=1;exitX=1;exitY=0.5;exitDx=0;exitDy=0;entryX=0;entryY=0.5;entryDx=0;entryDy=0;" edge="1" parent="1" source="l8_rdXsubYtjeVYRqZv_-10" target="l8_rdXsubYtjeVYRqZv_-11">
          <mxGeometry relative="1" as="geometry" />
        </mxCell>
        <mxCell id="l8_rdXsubYtjeVYRqZv_-10" value="Motor 1" style="rounded=0;whiteSpace=wrap;html=1;" vertex="1" parent="1">
          <mxGeometry x="310" y="420" width="90" height="30" as="geometry" />
        </mxCell>
        <mxCell id="l8_rdXsubYtjeVYRqZv_-11" value="Output 3" style="text;html=1;strokeColor=none;fillColor=none;align=left;verticalAlign=middle;whiteSpace=wrap;rounded=0;" vertex="1" parent="1">
          <mxGeometry x="460" y="425" width="70" height="20" as="geometry" />
        </mxCell>
        <mxCell id="l8_rdXsubYtjeVYRqZv_-15" style="rounded=0;orthogonalLoop=1;jettySize=auto;html=1;exitX=1;exitY=0.5;exitDx=0;exitDy=0;entryX=0;entryY=0.5;entryDx=0;entryDy=0;" edge="1" parent="1" source="l8_rdXsubYtjeVYRqZv_-13" target="l8_rdXsubYtjeVYRqZv_-14">
          <mxGeometry relative="1" as="geometry" />
        </mxCell>
        <mxCell id="l8_rdXsubYtjeVYRqZv_-13" value="Motor 4" style="rounded=0;whiteSpace=wrap;html=1;" vertex="1" parent="1">
          <mxGeometry x="310" y="460" width="90" height="30" as="geometry" />
        </mxCell>
        <mxCell id="l8_rdXsubYtjeVYRqZv_-14" value="Output 4" style="text;html=1;strokeColor=none;fillColor=none;align=left;verticalAlign=middle;whiteSpace=wrap;rounded=0;" vertex="1" parent="1">
          <mxGeometry x="460" y="465" width="70" height="20" as="geometry" />
        </mxCell>
        <mxCell id="l8_rdXsubYtjeVYRqZv_-19" value="GND" style="text;html=1;strokeColor=#666666;fillColor=#f5f5f5;align=right;verticalAlign=middle;whiteSpace=wrap;rounded=0;fontColor=#333333;" vertex="1" parent="1">
          <mxGeometry x="550" y="335" width="60" height="20" as="geometry" />
        </mxCell>
        <mxCell id="l8_rdXsubYtjeVYRqZv_-22" value="BATT+" style="text;html=1;strokeColor=#b85450;fillColor=#f8cecc;align=right;verticalAlign=middle;whiteSpace=wrap;rounded=0;" vertex="1" parent="1">
          <mxGeometry x="550" y="355" width="60" height="20" as="geometry" />
        </mxCell>
        <mxCell id="l8_rdXsubYtjeVYRqZv_-35" style="rounded=0;orthogonalLoop=1;jettySize=auto;html=1;exitX=1;exitY=0.5;exitDx=0;exitDy=0;entryX=0;entryY=0.5;entryDx=0;entryDy=0;" edge="1" parent="1" source="l8_rdXsubYtjeVYRqZv_-23" target="l8_rdXsubYtjeVYRqZv_-31">
          <mxGeometry relative="1" as="geometry" />
        </mxCell>
        <mxCell id="l8_rdXsubYtjeVYRqZv_-23" value="M1" style="text;html=1;strokeColor=none;fillColor=none;align=right;verticalAlign=middle;whiteSpace=wrap;rounded=0;" vertex="1" parent="1">
          <mxGeometry x="550" y="375" width="60" height="20" as="geometry" />
        </mxCell>
        <mxCell id="l8_rdXsubYtjeVYRqZv_-36" style="rounded=0;orthogonalLoop=1;jettySize=auto;html=1;exitX=1;exitY=0.5;exitDx=0;exitDy=0;entryX=0;entryY=0.5;entryDx=0;entryDy=0;" edge="1" parent="1" source="l8_rdXsubYtjeVYRqZv_-24" target="l8_rdXsubYtjeVYRqZv_-32">
          <mxGeometry relative="1" as="geometry" />
        </mxCell>
        <mxCell id="l8_rdXsubYtjeVYRqZv_-24" value="M2" style="text;html=1;strokeColor=none;fillColor=none;align=right;verticalAlign=middle;whiteSpace=wrap;rounded=0;" vertex="1" parent="1">
          <mxGeometry x="550" y="395" width="60" height="20" as="geometry" />
        </mxCell>
        <mxCell id="l8_rdXsubYtjeVYRqZv_-37" style="rounded=0;orthogonalLoop=1;jettySize=auto;html=1;exitX=1;exitY=0.5;exitDx=0;exitDy=0;entryX=0;entryY=0.5;entryDx=0;entryDy=0;" edge="1" parent="1" source="l8_rdXsubYtjeVYRqZv_-25" target="l8_rdXsubYtjeVYRqZv_-33">
          <mxGeometry relative="1" as="geometry" />
        </mxCell>
        <mxCell id="l8_rdXsubYtjeVYRqZv_-25" value="M3" style="text;html=1;strokeColor=none;fillColor=none;align=right;verticalAlign=middle;whiteSpace=wrap;rounded=0;" vertex="1" parent="1">
          <mxGeometry x="550" y="415" width="60" height="20" as="geometry" />
        </mxCell>
        <mxCell id="l8_rdXsubYtjeVYRqZv_-38" style="rounded=0;orthogonalLoop=1;jettySize=auto;html=1;exitX=1;exitY=0.5;exitDx=0;exitDy=0;entryX=0;entryY=0.5;entryDx=0;entryDy=0;" edge="1" parent="1" source="l8_rdXsubYtjeVYRqZv_-26" target="l8_rdXsubYtjeVYRqZv_-34">
          <mxGeometry relative="1" as="geometry" />
        </mxCell>
        <mxCell id="l8_rdXsubYtjeVYRqZv_-26" value="M4" style="text;html=1;strokeColor=none;fillColor=none;align=right;verticalAlign=middle;whiteSpace=wrap;rounded=0;" vertex="1" parent="1">
          <mxGeometry x="550" y="435" width="60" height="20" as="geometry" />
        </mxCell>
        <mxCell id="l8_rdXsubYtjeVYRqZv_-27" value="CURRENT" style="text;html=1;strokeColor=none;fillColor=none;align=right;verticalAlign=middle;whiteSpace=wrap;rounded=0;" vertex="1" parent="1">
          <mxGeometry x="550" y="455" width="60" height="20" as="geometry" />
        </mxCell>
        <mxCell id="l8_rdXsubYtjeVYRqZv_-28" value="Telemetry" style="text;html=1;strokeColor=none;fillColor=none;align=right;verticalAlign=middle;whiteSpace=wrap;rounded=0;" vertex="1" parent="1">
          <mxGeometry x="550" y="475" width="60" height="20" as="geometry" />
        </mxCell>
        <mxCell id="l8_rdXsubYtjeVYRqZv_-29" value="SpeedyBee BLS 35A" style="text;html=1;strokeColor=none;fillColor=none;align=left;verticalAlign=middle;whiteSpace=wrap;rounded=0;" vertex="1" parent="1">
          <mxGeometry x="460" y="500" width="130" height="30" as="geometry" />
        </mxCell>
        <mxCell id="l8_rdXsubYtjeVYRqZv_-30" value="" style="rounded=0;whiteSpace=wrap;html=1;" vertex="1" parent="1">
          <mxGeometry x="670" y="370" width="120" height="90" as="geometry" />
        </mxCell>
        <mxCell id="l8_rdXsubYtjeVYRqZv_-31" value="AUX 1" style="text;html=1;strokeColor=none;fillColor=none;align=left;verticalAlign=middle;whiteSpace=wrap;rounded=0;" vertex="1" parent="1">
          <mxGeometry x="670" y="375" width="60" height="20" as="geometry" />
        </mxCell>
        <mxCell id="l8_rdXsubYtjeVYRqZv_-32" value="AUX 2" style="text;html=1;strokeColor=none;fillColor=none;align=left;verticalAlign=middle;whiteSpace=wrap;rounded=0;" vertex="1" parent="1">
          <mxGeometry x="670" y="395" width="60" height="20" as="geometry" />
        </mxCell>
        <mxCell id="l8_rdXsubYtjeVYRqZv_-33" value="AUX 3" style="text;html=1;strokeColor=none;fillColor=none;align=left;verticalAlign=middle;whiteSpace=wrap;rounded=0;" vertex="1" parent="1">
          <mxGeometry x="670" y="415" width="60" height="20" as="geometry" />
        </mxCell>
        <mxCell id="l8_rdXsubYtjeVYRqZv_-34" value="AUX 4" style="text;html=1;strokeColor=none;fillColor=none;align=left;verticalAlign=middle;whiteSpace=wrap;rounded=0;" vertex="1" parent="1">
          <mxGeometry x="670" y="435" width="60" height="20" as="geometry" />
        </mxCell>
        <mxCell id="l8_rdXsubYtjeVYRqZv_-39" value="Remapping&lt;br&gt;in firmware" style="text;html=1;strokeColor=none;fillColor=none;align=center;verticalAlign=middle;whiteSpace=wrap;rounded=0;" vertex="1" parent="1">
          <mxGeometry x="492.5" y="270" width="85" height="30" as="geometry" />
        </mxCell>
        <mxCell id="l8_rdXsubYtjeVYRqZv_-40" value="" style="curved=1;endArrow=classic;html=1;rounded=0;exitX=0;exitY=0.5;exitDx=0;exitDy=0;dashed=1;" edge="1" parent="1" source="l8_rdXsubYtjeVYRqZv_-39">
          <mxGeometry width="50" height="50" relative="1" as="geometry">
            <mxPoint x="390" y="270" as="sourcePoint" />
            <mxPoint x="360" y="330" as="targetPoint" />
            <Array as="points">
              <mxPoint x="390" y="285" />
            </Array>
          </mxGeometry>
        </mxCell>
        <mxCell id="l8_rdXsubYtjeVYRqZv_-42" value="" style="curved=1;endArrow=classic;html=1;rounded=0;dashed=1;exitX=1;exitY=0.5;exitDx=0;exitDy=0;" edge="1" parent="1" source="l8_rdXsubYtjeVYRqZv_-39">
          <mxGeometry width="50" height="50" relative="1" as="geometry">
            <mxPoint x="590" y="290" as="sourcePoint" />
            <mxPoint x="680" y="360" as="targetPoint" />
            <Array as="points">
              <mxPoint x="630" y="285" />
            </Array>
          </mxGeometry>
        </mxCell>
      </root>
    </mxGraphModel>
  </diagram>
</mxfile>
